FILE "Aa! Megami-sama! (1997)(NEC Home Electronics)(JP)(Disk 1 of 2)[FXNHE742].img" BINARY
  TRACK 01 AUDIO
    INDEX 01 00:00:00
  TRACK 02 MODE1/2352
    PREGAP 00:03:00
    INDEX 01 02:17:04
  TRACK 03 MODE1/2352
    INDEX 01 02:22:15
